# xmcd
#
# Track frame offsets:
# 150
# 15009
# 37473
# 48213
# 62709
# 79061
# 93631
# 109122
# 126604
# 141682
# 153131
# 170456
#
# Disc length: 2475 seconds
#
# Revision: 0
# Processed by: cddbd v1.5PL3 Copyright (c) Steve Scherf et al.
# Submitted via: Axialis_AX_CDPlayer 2.6
#
DISCID=a309a90c
DTITLE=Eddie Rabbitt - From the Heart
DYEAR=1900
DGENRE=
TTITLE0=Drivin' My Life Away
TTITLE1=Suspicions
TTITLE2=Two Dollars in the Jukebox
TTITLE3=I Love a Rainy Night
TTITLE4=On Second Thought 
TTITLE5=American Boy
TTITLE6=Love May Never Pass This Way Again
TTITLE7=Great Old American Town
TTITLE8=It's Me I'm Runnin' From
TTITLE9=I'll Make Everything Alright
TTITLE10=You've Come to the Right Heart
TTITLE11=I'm There
EXTD=
EXTT0=
EXTT1=
EXTT2=
EXTT3=
EXTT4=
EXTT5=
EXTT6=
EXTT7=
EXTT8=
EXTT9=
EXTT10=
EXTT11=
PLAYORDER=
